<svg xmlns="http://www.w3.org/2000/svg" viewBox="0 0 220 80" role="img" aria-label="SSF Tech">
  <rect width="220" height="80" fill="none"/>
  <g transform="translate(8 13)">
    <path d="M25 4C12 12 35 23 22 34 12 43 3 36 2 28c5 11 21 6 19-3C19 14 4 13 25 4Z" fill="#ed1018"/>
    <path d="M45 5C28 14 55 28 38 43 29 51 15 47 11 36c9 13 28 8 26-4C35 18 20 17 45 5Z" fill="#fff"/>
    <path d="M53 14c-6 6 4 12-2 19-4 5-12 4-15-2 6 5 14 1 13-5-2-7-9-8 4-12Z" fill="#ed1018"/>
  </g>
  <text x="75" y="48" fill="#fff" font-family="Georgia, 'Times New Roman', serif" font-size="34" font-weight="700" letter-spacing="1">TECH</text>
</svg>
