<svg xmlns="http://www.w3.org/2000/svg" viewBox="0 0 1200 270" preserveAspectRatio="xMidYMid slice">
  <defs>
    <radialGradient id="r" cx="70%" cy="55%" r="60%">
      <stop offset="0" stop-color="#fa1422" stop-opacity=".8"/>
      <stop offset=".38" stop-color="#5c0810" stop-opacity=".55"/>
      <stop offset="1" stop-color="#06070d"/>
    </radialGradient>
    <filter id="g" x="-30%" y="-30%" width="160%" height="160%"><feGaussianBlur stdDeviation="3"/><feMerge><feMergeNode/><feMergeNode in="SourceGraphic"/></feMerge></filter>
  </defs>
  <rect width="1200" height="270" fill="#080910"/>
  <rect width="1200" height="270" fill="url(#r)"/>
  <g opacity=".55" stroke="#f41927" stroke-linecap="round" filter="url(#g)">
    <path d="M0 210C230 150 390 240 610 158s385-58 590-90" fill="none" stroke-width="2"/>
    <path d="M0 230C250 174 425 265 660 178s360-44 540-80" fill="none" stroke-width="1"/>
    <path d="M0 248h1200" stroke-width="1" opacity=".4"/>
  </g>
  <g transform="translate(780 28) rotate(37)" fill="none" stroke="#ff2633" stroke-width="8" stroke-linecap="round" stroke-linejoin="round" filter="url(#g)">
    <path d="M120 8C71 25 35 58 12 111l55 54c51-24 84-62 101-111 6-18 6-34 3-49-16-3-33-2-51 3Z" fill="#120910"/>
    <circle cx="117" cy="63" r="20"/>
    <path d="M33 91L0 93l23 23M89 146l-2 35 25-24"/>
    <path d="M35 172c-26 12-46 30-58 58 31-9 53-25 67-50"/>
  </g>
</svg>
