<svg xmlns="http://www.w3.org/2000/svg" viewBox="0 0 780 520" preserveAspectRatio="xMidYMid slice">
  <defs>
    <linearGradient id="bg" x1="0" x2="1" y1="0" y2="1">
      <stop offset="0" stop-color="#edf3ef"/>
      <stop offset=".52" stop-color="#b7c7c1"/>
      <stop offset="1" stop-color="#111820"/>
    </linearGradient>
    <linearGradient id="skin" x1="0" x2="1"><stop stop-color="#d9a878"/><stop offset="1" stop-color="#8a563b"/></linearGradient>
    <filter id="soft" x="-15%" y="-15%" width="130%" height="130%"><feGaussianBlur stdDeviation="10"/></filter>
  </defs>
  <rect width="780" height="520" rx="24" fill="url(#bg)"/>
  <circle cx="102" cy="112" r="74" fill="#5f8b55" opacity=".5"/>
  <circle cx="58" cy="212" r="44" fill="#356439" opacity=".55"/>
  <path d="M0 400C130 330 290 380 410 320s250-45 370 18v182H0Z" fill="#2d3337" opacity=".22"/>
  <ellipse cx="390" cy="442" rx="250" ry="30" fill="#000" opacity=".25" filter="url(#soft)"/>
  <g transform="translate(110 130)">
    <g transform="translate(18 76)">
      <circle cx="80" cy="44" r="42" fill="url(#skin)"/>
      <path d="M39 42c14-51 83-46 91 1-26-23-62-24-91-1Z" fill="#1b1d1f"/>
      <path d="M38 91h88c38 0 70 31 70 70v72H0v-72c0-39 31-70 70-70Z" fill="#d7ded9"/>
      <path d="M89 92l32 141H63Z" fill="#737b7d" opacity=".45"/>
      <rect x="132" y="130" width="230" height="125" rx="14" fill="#20272d"/>
      <rect x="148" y="144" width="198" height="95" rx="8" fill="#eff5f6"/>
      <path d="M132 251h230l26 34H112Z" fill="#11161a"/>
    </g>
    <g transform="translate(210 5)">
      <circle cx="92" cy="58" r="43" fill="#c98962"/>
      <path d="M45 60c4-61 86-74 101-10-33-18-66-16-101 10Z" fill="#3f251d"/>
      <path d="M51 97h81c45 0 82 36 82 82v123H0V179c0-45 36-82 82-82Z" fill="#c7a080"/>
      <path d="M61 97c15 33 54 43 78 0 14 58 2 135-39 193C58 230 45 154 61 97Z" fill="#f1f1ec"/>
    </g>
    <g transform="translate(445 88)">
      <circle cx="79" cy="50" r="43" fill="#6a3d2f"/>
      <path d="M43 49c7-48 75-55 88-4-30-15-58-14-88 4Z" fill="#101010"/>
      <path d="M43 96h78c42 0 77 34 77 77v111H0V173c0-42 34-77 77-77Z" fill="#596468"/>
      <path d="M61 97l28 184 45-184Z" fill="#20292e" opacity=".34"/>
    </g>
  </g>
</svg>
